<?xml version="1.0" standalone="no"?>
<!DOCTYPE svg PUBLIC "-//W3C//DTD SVG 20010904//EN"
 "http://www.w3.org/TR/2001/REC-SVG-20010904/DTD/svg10.dtd">
<svg version="1.0" xmlns="http://www.w3.org/2000/svg"
 width="806.000000pt" height="806.000000pt" viewBox="0 0 806.000000 806.000000"
 preserveAspectRatio="xMidYMid meet">
<metadata>
Created by potrace 1.14, written by Peter Selinger 2001-2017
</metadata>
<g transform="translate(0.000000,806.000000) scale(0.100000,-0.100000)"
fill="#000000" stroke="none">
<path d="M172 5266 c-47 -16 -106 -76 -119 -119 -15 -51 -17 -313 -2 -357 19
-54 56 -97 107 -121 l46 -23 938 0 c516 0 938 -3 938 -7 0 -3 -8 -17 -19 -30
-10 -13 -96 -134 -192 -269 -95 -135 -177 -246 -181 -248 -4 -2 -8 -8 -8 -13
0 -6 -5 -15 -10 -22 -9 -10 -59 -78 -104 -142 -8 -11 -77 -108 -153 -215 -77
-107 -267 -375 -423 -595 -157 -220 -288 -404 -293 -410 -4 -5 -37 -50 -72
-100 -35 -49 -68 -95 -72 -101 -4 -5 -12 -17 -18 -26 -13 -20 -141 -199 -152
-213 -5 -5 -28 -38 -51 -72 -23 -34 -45 -64 -49 -66 -6 -4 -9 -421 -4 -459 1
-5 1466 -8 3256 -8 3525 0 3294 -4 3323 52 29 53 15 125 -28 148 -11 6 -20 14
-20 18 0 4 279 6 620 5 l620 -1 0 304 0 304 -552 1 c-393 1 -544 4 -521 11 70
23 115 104 103 184 -8 55 -35 93 -81 116 l-34 18 55 1 c30 0 155 1 278 1 l222
0 0 254 0 254 -22 0 c-13 0 -160 1 -328 1 -263 -1 -301 1 -275 13 43 19 66 49
72 94 6 44 -14 92 -49 116 -20 14 25 16 507 18 l529 3 0 239 c1 158 -3 243
-10 250 -7 8 -114 11 -327 10 -289 -1 -353 3 -298 21 23 7 51 62 51 100 0 34
-24 80 -52 99 -21 15 10 16 355 16 l377 0 0 330 0 330 -597 0 c-588 0 -597 0
-563 19 43 23 80 90 80 144 0 54 -39 120 -84 141 -31 15 -306 16 -3357 15
-2571 0 -3332 -3 -3357 -13z m2843 -539 c-2 -12 -7 -128 -10 -257 -6 -234 -9
-330 -19 -655 -3 -93 -8 -258 -11 -365 -3 -107 -7 -249 -10 -315 -2 -66 -7
-217 -11 -335 -3 -118 -8 -255 -9 -305 -2 -49 -3 -118 -4 -151 l-1 -62 -850 1
-849 0 56 81 c31 45 82 116 112 158 31 42 94 131 141 197 47 67 101 143 120
170 79 109 198 275 305 426 63 88 121 169 129 180 45 62 344 483 393 553 32
46 63 89 68 95 6 7 100 138 209 292 244 343 230 324 238 319 4 -2 5 -14 3 -27z
m3772 -1403 c-3 -3 -12 -4 -19 -1 -8 3 -5 6 6 6 11 1 17 -2 13 -5z"/>
</g>
</svg>
